<?xml version="1.0" encoding="utf-8"?>
<!-- Generator: Adobe Illustrator 27.1.1, SVG Export Plug-In . SVG Version: 6.00 Build 0)  -->
<svg version="1.1" id="Layer_1" xmlns="http://www.w3.org/2000/svg" xmlns:xlink="http://www.w3.org/1999/xlink" x="0px" y="0px"
	 viewBox="0 0 408.9 146.3" style="enable-background:new 0 0 408.9 146.3;" xml:space="preserve">
<style type="text/css">
	.st0{fill:#FFFFFF;}
</style>
<g>
	<path class="st0" d="M223.9,24.6c3.7-3.9,7.7-3.8,11.9,0.5c0.2,0.2,0.6,0.3,0.8,0.2c9.4-4,19-6.9,28.8-8.8c5.4-1,12-1.7,19.9-2
		c11.8-0.5,23.7-0.6,35.5-0.2c0.4,0,0.8,0.2,0.8,0.4c0,0.2-0.3,0.3-1.1,0.2c-0.4,0-0.8-0.1-1.1,0c-25,0.8-48.6,7-70.8,18.4
		c-8.9,4.6-15.2,11.7-18.7,21.2c-0.2,0.4-0.3,0.4-0.5,0c-1.4-3.4-2.8-6.7-4.2-9.9c-1.8-4.2-3.4-7.4-4.7-9.6
		c-7.2-11.9-17.4-20.5-30.8-25.7c-7.6-2.9-15.1-6-22.6-9C167,0,167,0,167.3,0c10.4,2,21.7,5.2,33.8,9.6c9,3.3,16.3,8.2,22.1,14.9
		C223.4,24.7,223.7,24.8,223.9,24.6C223.9,24.6,223.9,24.6,223.9,24.6z"/>
	<path class="st0" d="M257.5,80.5c-4.6,0.2-8.6-1.1-11.9-3.8c-2.3-1.9-3.6-4.1-4-6.6c-0.3-1.9-0.1-3.8,0.7-5.7
		c0.7-1.6,1.8-3,3.4-4.3c3.3-2.6,7.1-4.2,11.4-4.6c0.4,0,0.7,0.1,0.7,0.4c0,0.3-0.2,0.4-0.8,0.4c-0.3,0-0.6,0-0.8,0.1
		c-5.8,1.2-9.5,4.5-11.2,9.8c-1.4,4.6-0.3,8.2,3.2,10.8c1.2,0.9,2.7,1.5,4.4,1.8c1.5,0.3,3.1,0.4,4.8,0.4c1,0,1.9-0.6,2.2-1.5
		c2.7-7.8,5.9-15.3,9.7-22.4c1.8-3.5,4.5-6.2,8.1-8.2c2.3-1.2,4.3-1.7,6-1.5c1.8,0.2,3.1,1.2,4.1,2.7c0.7,1.2,1,2.7,0.8,4.5
		c-0.4,3.7-1.5,7.1-3.5,10.3c-5.4,9-13.3,14.7-23.5,17.2c-0.3,0.1-0.6,0.3-0.7,0.6l-6.4,12.4c-0.2,0.3,0,0.7,0.3,0.9
		c0,0,0.1,0,0.1,0.1c7.9,1.8,15.1,5.2,21.7,10.3c3,2.3,4.8,5.7,5.4,10.2c0.2,1.5,0.1,2.6-0.1,3.5c-0.4,1.3-1.2,2.2-2.4,2.9
		c-1.2,0.6-1.5,0.3-1.1-0.9c1.4-3.6,1.5-6.9,0.2-10c-1-2.4-3.1-4.5-6.2-6.5c-6.1-3.7-12.9-5.9-20.2-6.5c-0.3,0-0.6,0.1-0.8,0.4
		c-3.6,5.4-8.1,9.1-13.5,11.1c-4.9,1.8-8.8,0.9-11.9-2.8c-1.1-1.3-1.4-2.7-1-4.2c0.3-1.1,1-2.2,2.2-3.4c2.8-2.7,6.2-4.3,10.2-5
		c4.2-0.7,8.6-0.8,13.2-0.2c0.6,0.1,1.2-0.2,1.4-0.7l6-11.4c0.1-0.1,0-0.3-0.1-0.4C257.6,80.5,257.5,80.5,257.5,80.5z M276.3,54.1
		c-4,4.9-7.1,9.8-9.4,14.4c-1.5,3.1-3,6.1-4.6,9.1c-0.3,0.7-0.2,0.9,0.5,0.6c7.7-2.5,13.9-7.2,18.5-13.8c2.4-3.4,3.7-7.2,4.1-11.3
		c0.3-3.6-1.2-4.7-4.6-3.1C279.4,50.9,277.8,52.2,276.3,54.1z M247.9,96.2c-6.3-1-12.2-0.2-17.5,2.3c-1.8,0.8-3.1,2.1-3.8,3.9
		c-0.7,1.7-0.2,2.9,1.4,3.7c3.4,1.6,6.8,1.6,10.2-0.1c4.3-2.1,7.7-4.9,10.1-8.6c0.2-0.4,0.1-0.9-0.2-1.1
		C248.1,96.3,248,96.3,247.9,96.2z"/>
	<path class="st0" d="M65.9,90c0.4-0.1,0.8-0.4,1.1-0.9c3.6-4.5,8.1-7.6,13.4-9.1c1.1-0.3,1.3,0,0.8,1c-2,3.8-3.9,7.6-5.7,11.2
		c-0.9,2-1.5,4-1.6,6.2c-0.1,2.3,0.7,2.7,2.5,1.2c2.7-2.3,4.8-5.2,6.4-8.9c1.6-3.7,3.7-6.8,6.2-9.1c1.4-1.3,3-2.2,4.7-2.7
		c1.8-0.5,3.2-0.4,4.5,0.3c1.1,0.6,1.8,1.8,2.2,3.3c0.4,1.8,0.2,3.6-0.5,5.6c-1.3,3.9-3.2,7.1-5.7,9.6c-0.2,0.2-0.3,0.6-0.1,0.8
		c0.5,0.8,1.2,1.2,2.1,1.3c0.6,0.1,1.3-0.1,2.1-0.6c3.3-2.2,5.5-5.2,6.7-9c1.2-3.9,2.7-7.8,4.3-11.7c0.3-0.8,0.1-1.1-0.7-0.7
		c-0.7,0.3-1.3,0.4-1.9,0.3c-1.6-0.4-1.8-0.9-0.5-1.5c0.3-0.1,0.7-0.2,1.1-0.2c0.9,0.1,1.8,0,2.7-0.2c0.3-0.1,0.5-0.3,0.7-0.6
		c1.6-4.2,3.9-8,6.8-11.4c1.1-1.2,2.2-1.9,3.4-2c2.4-0.2,3.2,1.4,2.2,5c-0.7,2.7-1.8,5.3-3.2,7.7c-0.3,0.5-0.4,0.8-0.4,1.1
		c0,0.6,0.4,0.7,1.2,0.4c0.3-0.1,0.7-0.1,0.9,0c1.4,0.5,1.4,1.1-0.1,1.6c-0.3,0.1-0.6,0.1-0.9,0c-1.3-0.4-2.3,0-3,1
		c-2.2,3.2-4.2,5.9-6.2,8c-1.1,1.1-1.8,2.3-2.2,3.6c-1,3.2-1.5,5.4-1.4,6.4c0.3,2.8,1.7,3.4,4.2,1.9c1.6-1,3-2.4,4-4
		c3.8-6.2,5.9-10.4,6.6-12.4c0.8-2.8,3-3.9,6.5-3.3c0.2,0,0.3,0.2,0.3,0.4c0,0.1,0,0.1-0.1,0.2c-3.5,4.7-6.2,9.9-8.3,15.5
		c-0.4,1.1-0.5,2.3-0.3,3.7c0.2,1.4,0.9,1.8,2.1,1c1.7-1,3.1-2.4,4.2-4c2.8-4.4,5.4-8.9,7.7-13.6c0.7-1.5,1.5-2.5,2.2-2.9
		c1-0.6,2.2-0.7,3.6-0.3c0.2,0.1,0.3,0.3,0.3,0.5c0,0,0,0.1,0,0.1c-3.5,5.2-6.1,10.8-8,16.8c-0.9,2.8,0.1,3.7,2.9,2.8
		c1.4-0.5,2.7-1.7,3.7-3.7c1-2,1.6-3,1.6-3c0.7-1.2,1.4-2.4,2.1-3.7c1.5-2.8,2-5.8,1.4-8.9c0-0.3,0.1-0.6,0.4-0.6
		c1.3-0.4,2.5-0.4,3.8-0.1c0.3,0.1,0.5,0.3,0.6,0.6c0.3,2.8,0,5.5-1,8.2c-0.1,0.3-0.1,0.4,0.1,0.4c0.1,0,0.3-0.1,0.4-0.3
		c1.8-3.6,4.1-6.4,6.8-8.4c2.3-1.7,4.3-1.8,5.8-0.1c1,1.1,1.5,2.6,1.4,4.5c-0.2,2.3-0.7,4.5-1.7,6.6c-1.2,2.5-2.6,4.7-4.2,6.4
		c-1.8,1.9-4,3.3-6.7,4.1c-2.3,0.7-4.6,0.5-6.7-0.4c-0.3-0.1-0.6,0-0.7,0.3c0,0,0,0,0,0c-1.7,5.3-3.8,10.4-6.2,15.3
		c-0.7,1.5-1.5,2.4-2.4,2.8c-1.1,0.5-2.3,0.4-3.6-0.1c-0.2-0.1-0.3-0.4-0.2-0.6c0,0,0,0,0,0c5.1-8.4,9.4-17.1,12.9-26.3
		c0.1-0.3,0.1-0.5,0-0.6c-0.1-0.1-0.3,0-0.4,0.2c0,0,0,0.1-0.1,0.1c-1,2.9-2.6,5.3-4.7,7.3c-1.6,1.5-3.1,2.2-4.7,2.2
		c-2.4,0-3.6-1.9-3.5-5.6c0-1.8-0.3-1.9-1-0.2c-0.7,1.7-1.8,3.1-3.3,4.3c-1.7,1.2-3.3,1.8-4.9,1.6c-2.2-0.3-3.4-2.1-3.4-5.4
		c0-0.5-0.1-0.5-0.3-0.1c-0.7,1.4-1.6,2.6-2.7,3.6c-1.1,1-2.4,1.7-3.9,1.9c-3.5,0.6-5.3-1.3-5.5-5.5c0-0.3-0.1-0.4-0.3-0.1
		c-1.7,2.4-3.5,4-5.3,4.8c-2,0.9-3.9,0.7-5.8-0.9c-0.2-0.2-0.5-0.2-0.8,0c-1.5,1.1-3.1,1.7-4.9,1.8c-1.5,0.1-2.7-0.3-3.7-1.2
		c-1-1-1.6-2.3-1.6-3.9c0-1.3-0.3-1.3-0.9-0.2c-0.9,1.7-2.1,3.2-3.7,4.3c-1.8,1.3-3.4,1.5-5,0.9c-1.4-0.6-2.2-1.8-2.4-3.5
		c-0.2-2.1,0.2-4.2,1.5-6.1c0.8-1.3,1.2-2,1.3-2c0.7-1.3,1.4-2.7,2-4.1c0.4-1,0.1-1.4-0.9-0.9c-2,0.8-3.7,2-5.1,3.6
		c-3.1,3.4-5.7,7.2-7.8,11.3c-0.6,1-1.2,1.7-1.8,1.9c-0.8,0.3-1.6,0.3-2.5,0c-0.2-0.1-0.4-0.3-0.3-0.6c0,0,0,0,0-0.1
		c5.8-12.5,12-24.8,18.5-36.9c0.1-0.2,0-0.6-0.2-0.7c0,0-0.1,0-0.1,0l-7.6-2.1c-0.7-0.2-1.3,0.1-1.6,0.7c-3.7,7.5-6.5,14.7-8.6,21.6
		c-0.9,2.9-2.6,6.4-5.1,10.6c-3.2,5.3-7.7,9.1-13.6,11.3c-9.6,3.6-19,3.2-28.2-1.1c-5.7-2.7-8.9-7.2-9.6-13.6
		c-0.5-4.9,0.6-9.2,3.3-12.9c1-1.4,2.5-2.4,4.4-2.9c0.4-0.1,0.8-0.1,1.1,0.1c0.6,0.3,0.4,0.8-0.6,1.5c-4.5,2.9-6.5,7.3-6,13.1
		c0.3,3.3,1.3,6,3,8c4.1,4.9,9.5,7.5,16,7.7c10.9,0.3,19.5-3.9,25.7-12.5c2-2.8,4-6.1,6-10c3.7-7.2,7.2-14.6,10.6-22
		c0.1-0.3,0-0.5-0.2-0.7c0,0,0,0,0,0c-6.6-2.3-13.1-3.6-19.5-3.7c-8-0.2-14.1,2.8-18.4,9c-1.4,2-2,4.5-1.8,7.4
		c0.1,1.9,1,3.4,2.7,4.5c1.3,0.8,2.9,1.2,4.7,1.2c4.6-0.1,7.8-2.5,9.4-7.1c0.1-0.4,0.3-0.6,0.5-0.8c0.6-0.5,0.9-0.3,1,0.5
		c0,0.3,0,0.6-0.1,0.9c-1.5,5.1-4.6,7.9-9.3,8.4c-2.7,0.3-5.1-0.2-7.2-1.4c-1.5-0.9-2.8-2.2-3.7-3.8c-0.8-1.4-1.2-3-1.3-4.9
		c-0.2-4.2,1-7.8,3.6-10.7c2.1-2.4,5.2-4.1,9.1-5.3c5.8-1.7,11.9-1.7,18.1,0.2c4.5,1.4,8.9,2.7,13.4,4c0.3,0.1,0.6,0,0.9-0.2
		l3.2-2.9c1.3-1.1,2.2-1.2,2.9-0.2c0.6,1,0.4,1.5-0.7,1.6c-1.5,0.1-2.5,0.8-3,2.1c-0.1,0.3,0,0.6,0.3,0.7c2.8,1.3,5.8,2.1,8.8,2.4
		c1.1,0.1,2.7,0.4,4.9,0.8c1.6,0.3,3.3,0.4,5,0.2c0.7-0.1,1.3-0.6,1.6-1.2c0.5-1.2,1-1.4,1.5-0.8c1.1,1.2,0.8,2.2-0.9,3
		c-2.8,1.4-5.8,1.8-9,0.9c-0.3-0.1-0.6,0-0.8,0.3c-5.1,8-9.7,16.2-13.7,24.8C65.4,90,65.5,90.2,65.9,90z M120,65.9
		c-2.2,3.2-3.7,6-4.5,8.3c-0.1,0.3-0.3,0.7-0.6,1.2c-0.6,0.9,0,1.2,1.9,1c0.6-0.1,1.1-0.4,1.4-1c1.7-2.7,2.9-5.6,3.8-8.8
		c0.1-0.5,0.1-0.9-0.1-1.3C121.4,64.5,120.8,64.7,120,65.9z M116.2,78.3c-0.8-0.3-1.5-0.4-2.1-0.2c-0.4,0.2-0.8,0.7-1.2,1.5
		c-0.7,1.7-1.4,3.4-2.1,5.2c-0.2,0.4-0.2,0.7-0.1,0.8c0.1,0.1,0.4,0.1,0.7-0.2c0,0,0-0.1,0.1-0.1l4.8-6.5
		C116.5,78.6,116.4,78.4,116.2,78.3C116.3,78.3,116.2,78.3,116.2,78.3z M97.8,80.9c-1.1-0.6-2.1-0.5-3.1,0.3
		c-4.6,3.7-7.5,8.5-8.7,14.1c-0.3,1.4-0.3,2.5,0,3.3c0.5,1.6,1.9,1.9,4,0.9c0.5-0.2,0.7-1.2,0.7-3.1c0-4.1,1.4-5.1,4.3-2.9
		c0.2,0.2,0.5,0.1,0.7-0.1c0,0,0,0,0,0c1.9-2.6,2.9-5.6,3-8.9c0-0.1,0-0.5,0.1-1.3C99,82.1,98.6,81.3,97.8,80.9z M144.6,100
		c2.3-0.3,4.2-1,5.8-2.3c0.8-0.7,2.2-2.2,4-4.5c1.6-1.9,2.8-4.1,3.8-6.4c0.5-1.2,0.7-2.3,0.8-3.4c0.1-3.1-1.1-3.9-3.6-2.3
		c-0.9,0.6-1.8,1.5-2.6,2.7c-3.4,4.8-6.4,9.8-9,15.1C143.3,99.8,143.6,100.2,144.6,100z"/>
	<path class="st0" d="M184.4,95.7c-0.9,1.7-2.1,3.1-3.6,4.2c-1.1,0.8-2.2,1.2-3.3,1.2c-1.4,0-2.6-0.3-3.6-1.2
		c-0.4-0.3-0.9-0.4-1.4-0.1c-3.3,2.1-5.8,2.3-7.7,0.6c-1.2-1.1-1.8-2.7-1.8-4.6c0-1.6,0.3-3.3,1-5.1c1.7-4.9,4.6-8.5,8.7-10.7
		c2-1.1,3.8-1.5,5.4-1.1c1.7,0.4,2.8,1.5,3.3,3.4c0.3,1.2,0.3,2.6-0.1,4.3c-1,4.2-3,8-6,11.2c-0.2,0.2-0.2,0.6,0,0.8
		c1.3,1.7,2.9,1.8,4.7,0.3c3.3-2.7,5.8-6.8,7.5-12.3c2.5-8.2,5.9-15.5,10-22c0.6-1,1.5-2,2.6-2.9c1.1-0.9,2.2-1.3,3.3-1.3
		c1.3,0.1,2.1,0.9,2.2,2.4c0.1,0.8-0.1,1.7-0.5,2.9c-2.7,7.8-7,14.9-13,21.3c-1.8,2-2.9,4.3-3.3,7.1c-0.2,1.7-0.1,3.1,0.4,4.3
		c1,2.4,2.9,2.4,5.7-0.1c0.9-0.8,2-2.3,3.2-4.4c0.1-0.2,0.9-1.9,2.3-4.9c1.3-2.8,3.1-5.3,5.5-7.5c3.1-2.8,6.6-3.8,10.6-3.2
		c0.7,0.1,1.3,0.3,1.8,0.7c0.6,0.4,1.1,0.9,1.4,1.4c0.7,1.3,0.5,1.5-0.7,0.7c-2.5-1.6-4.7-1.7-6.7-0.1c-4.5,3.6-7.9,8.2-10.2,13.8
		c-0.5,1.1-0.5,2.2-0.2,3.3c0.4,1.4,1.3,1.7,2.8,1c1.8-0.8,3.5-2.5,5.2-5.1c1.9-2.9,3.7-5.9,5.3-9c0.7-1.3,2.3-1.8,4.7-1.4
		c0.3,0,0.5,0.3,0.4,0.6c0,0.1,0,0.1-0.1,0.2c-2.6,4.1-4.5,8.3-5.6,12.7c-0.2,0.7-0.2,1.2-0.1,1.6c0.2,0.7,0.6,1,1.3,0.9
		c0.3-0.1,0.7-0.3,1.1-0.7c3-3,5.4-6.4,7.3-10.2c0.1-0.2,0.2-0.3,0.3-0.4c0.5-0.3,0.6-0.1,0.2,0.7c-1.7,4.4-4.2,8.3-7.6,11.6
		c-1.3,1.2-2.6,1.4-4.1,0.4c-1.9-1.2-2.6-3.2-1.9-5.9c0.2-0.8,0.1-1.1-0.3-0.8c-0.1,0.1-0.3,0.2-0.4,0.4c-1.2,2.2-2.7,4-4.7,5.4
		c-1.6,1.1-3,1.4-4.3,0.8c-1.4-0.7-2.3-2.1-2.8-4.4c-0.1-0.6-0.3-0.6-0.6-0.1c-1.7,2.8-4,4.4-7,4.8c-1.7,0.2-3.1-0.1-4.1-1
		c-1.1-1.1-1.6-2.6-1.4-4.6c0-0.3,0-0.5-0.2-0.6c-0.2-0.1-0.4-0.1-0.6,0.2C184.5,95.6,184.4,95.7,184.4,95.7z M201.8,64.9
		c-4.1,6.4-7.4,13.1-10,20.2c-0.4,1.2-0.2,1.3,0.6,0.3c4.7-5.5,8.4-11.9,11.2-18.9c0.2-0.5,0.3-1,0.3-1.4
		C204,62.6,203.3,62.5,201.8,64.9z M177.6,80.7c-1.7,0.2-3.1,1-4.4,2.5c-3.3,3.8-5.4,7.9-6.4,12.4c-0.3,1.4-0.3,2.5,0.1,3.3
		c0.7,1.5,2.1,1.6,4.2,0.4c0.6-0.4,0.9-1.1,0.7-1.8c-0.2-0.6-0.3-1.4-0.4-2.2c0-0.8,0.2-1.5,0.6-2c1-1.3,2.2-1.2,3.7,0.3
		c0.2,0.2,0.4,0.2,0.6,0c0,0,0,0,0.1-0.1c1.7-2.7,2.8-5.4,3.4-8.3c0.4-1.8-0.1-3.3-1.3-4.3C178.3,80.7,178,80.6,177.6,80.7z"/>
	<path class="st0" d="M305,86.7c0.4-0.5,1.3-1.3,2.4-2.6c2.5-2.7,5.7-4.4,9.7-5.2c2.3-0.5,3.5,0.5,3.4,2.9c-0.1,1.6-0.9,3.1-2.6,4.6
		c-2.2,1.9-4.6,3.1-7.4,3.7c-0.5,0.1-0.9,0.5-1,1c-0.5,3.3,0,5.8,1.4,7.6c1,1.4,2.3,1.7,3.9,1c2.6-1.2,4.5-3,5.7-5.6
		c0.9-1.9,1.8-3.9,2.7-5.8c1.7-3.8,4.3-6.7,7.8-8.6c1.7-0.9,3.2-1.3,4.7-1.2c2.2,0.2,3.2,1.4,2.9,3.8c-0.2,1.3-0.7,2.6-1.7,3.7
		c-2.2,2.6-5.3,4.4-9.3,5.4c-0.9,0.2-1.6,0.8-2,1.7c-0.8,1.8-0.8,3.8,0.1,6.2c0.3,0.9,1.2,1.5,2.2,1.4c3.4-0.3,5.8-2.2,7.2-5.7
		c0.4-0.9,1.1-1.7,2-2.1c0.5-0.3,1-0.9,1.5-1.9c2.6-6.1,4.8-10.4,6.5-13c1.1-1.7,2.7-2.4,4.8-2.2c0.6,0.1,1,0.2,1.4,0.5
		c0.7,0.6-0.1,0.9-2.4,0.9c-0.7,0-1.3,0.4-1.5,1.1c-1.1,3.1-0.9,5.9,0.5,8.4c3,5.1,2.4,9.5-1.9,13.2c-0.3,0.2-0.4,0.6-0.2,0.7
		c0,0,0,0,0,0c0.2,0.2,0.4,0.2,0.8,0.1c2-0.5,3.7-1.6,4.9-3.4c2.6-3.6,4.6-7.6,6-11.8c0,0,0.3-0.6,0.7-1.7c0.4-1,0.6-2.2,0.4-3.6
		c0-0.3,0.2-0.6,0.4-0.6c0,0,0.1,0,0.1,0l3.6,0.3c0.5,0,0.8,0.5,0.7,0.9c0,0.1,0,0.2-0.1,0.3l-6,13.8c-0.5,1.2-0.7,2.3-0.7,3.5
		c0.1,1.4,0.9,2,2.5,1.7c1.3-0.2,2.2-0.8,2.9-1.9c2.5-3.8,4.8-7.8,7.2-12c3.4-6.3,8.6-8.6,15.6-7c0.3,0.1,0.6-0.1,0.7-0.3
		c2.4-4.7,4.8-9.5,7-14.4c0.7-1.5,1.4-2.6,1.9-3.1c1.2-1.1,2.5-1.3,4-0.6c0.6,0.3,0.8,1,0.6,1.5c0,0,0,0.1-0.1,0.1
		C392.3,73,386.7,83.6,382.3,94c-0.5,1.2-0.8,2.2-0.9,3.1c-0.2,2.6,0.8,3.3,2.9,2.1c0.7-0.4,1.4-1.1,2.1-1.9
		c2.3-2.9,4.2-6.1,5.7-9.6c1.8-4.2,4.8-7.2,8.9-8.8c1.6-0.7,3-0.8,4.2-0.3c1.5,0.5,2.1,1.7,1.9,3.3c-0.1,1-0.6,2.1-1.3,3.2
		c-2.5,3.5-6,5.6-10.4,6.3c-0.3,0.1-0.6,0.2-0.8,0.5c-1.3,2.1-1.5,4.3-0.6,6.6c0.8,1.9,2.3,2.5,4.5,1.6c2-0.8,3.7-2.2,5-4
		c1.7-2.3,3.1-4.8,4.4-7.3c0.2-0.4,0.4-0.6,0.7-0.5c0.2,0,0.4,0.3,0.3,0.6c0,0,0,0.1,0,0.1c-1.3,3.5-3.1,6.6-5.5,9.5
		c-1.4,1.7-3.2,2.7-5.3,3.1c-4.5,0.7-7.2-1-8.2-5.4c-0.2-0.8-0.5-0.8-0.9-0.1c-1.2,2.2-3.1,4-5.5,5.3c-1.3,0.7-2.4,0.6-3.5-0.4
		c-1.7-1.5-2.4-2.8-2.2-4c0.3-1.8-0.1-1.9-1.2-0.5c-2,2.8-4,4.4-6.1,4.9c-1.3,0.3-2.4,0-3.4-0.9c-1-0.9-1.5-2.2-1.5-3.7
		c0-1.8-0.3-1.9-1.1-0.3c-0.9,1.9-2.2,3.3-3.9,4.3c-1.5,0.9-2.8,1.1-4.1,0.6c-1.5-0.5-2.4-1.8-2.9-3.8c-0.2-0.8-0.6-0.9-1.1-0.2
		c-1,1.3-2.1,2.3-3.3,3.1c-0.9,0.6-2,0.9-3.5,0.9c-1.2,0-2.5,0.1-3.7,0.2c-1.9,0.2-3.2,0.1-4-0.2c-1.2-0.5-2.1-1.3-2.8-2.6
		c-0.1-0.2-0.3-0.2-0.5-0.1c0,0-0.1,0-0.1,0.1c-2.1,2.3-4.7,3.2-7.7,3c-1.6-0.1-2.9-0.7-3.9-1.8c-0.9-1-1.6-2.2-2-3.5
		c-0.1-0.3-0.2-0.3-0.4-0.1c-1.6,2.5-3.5,4.2-5.5,5c-4.1,1.7-7,0.5-8.8-3.4c-1.4-3.2-0.9-6,1.5-8.4c0.2-0.2,0.5-0.4,0.9-0.4
		c2.4-0.4,4.4-1.5,6-3.1c0.7-0.7,1.1-1.4,1.2-2.2c0.1-1.1-0.4-1.7-1.7-1.8c-0.6,0-1.3,0.1-2.1,0.5c-7.5,3.7-11.5,9.9-12.1,18.5
		c0,0.3-0.2,0.5-0.5,0.5l-2.5,0c-0.7,0-1.2-0.5-1.2-1.2c0-0.1,0-0.3,0.1-0.4l2.5-6.8c0.2-0.5,0.1-0.6-0.2-0.4
		c-0.1,0.1-0.2,0.2-0.3,0.5c-1.2,3.1-3.1,5.5-5.8,7.4c-1,0.7-1.9,1-2.8,0.9c-1.2-0.1-2.1-0.8-2.7-1.9c-0.3-0.6-0.4-1.3-0.5-2.3
		c0-0.9,0-1.7,0-2.4c0-0.8-0.2-0.9-0.5-0.1c-1.3,2.6-3.2,4.6-5.7,6.1c-2.3,1.4-4,0.9-5.4-1.4c-0.8-1.4-1.1-2.9-0.8-4.5
		c0.7-4.2,2.5-8.1,5.4-11.6c2.7-3.3,6.2-5,10.5-5.1c2.1-0.1,3.8,0.7,5.1,2.2c0.5,0.6,0.5,1,0.1,1.2c-0.2,0.1-0.6,0-0.8-0.2
		c-2.3-2.2-4.7-2.3-7.3-0.1c-4.4,3.7-7.5,8.3-9.4,13.8c-0.4,1.1-0.5,2-0.3,2.8c0.4,1.7,1.6,2,3.5,0.8c2-1.2,3.8-3.3,5.5-6.3
		c1.5-2.6,3-5.1,4.6-7.6c0.8-1.2,2.3-1.5,4.5-1c0.3,0.1,0.5,0.3,0.4,0.6c0,0.1-0.1,0.1-0.1,0.2c-3.1,3.8-5,8.3-5.6,13.4
		c-0.2,1.8,0.4,2.2,1.9,1.2c1.3-0.8,2.4-2.1,3.4-3.9c5.6-9.8,11-19.6,16.5-29.4c1.3-2.4,2.5-3.9,3.4-4.5c1.1-0.7,2.3-0.8,3.7-0.4
		c0.3,0.1,0.4,0.4,0.3,0.6c0,0.1,0,0.1-0.1,0.2c-5.7,7.4-10.6,15.5-14.7,24.2C303.5,87.9,303.7,88.1,305,86.7z M330.9,83.5
		c-1.7,1.9-3,3.7-4.1,5.5c-0.6,1.1-0.3,1.4,0.9,1.1c4.6-1.1,7.6-3.9,9.1-8.2c0.7-2.1,0.1-2.8-1.9-1.9c-1.2,0.5-2.1,1.2-2.9,2.1
		C331.3,83,330.9,83.5,330.9,83.5z M372.8,87.4c-1.7,2.2-2.9,4.7-3.8,7.3c-0.4,1.2-0.5,2.2-0.3,3c0.3,1.9,1.6,2.2,3.7,1.1
		c0.8-0.4,1.5-1,2-1.8c3.7-5,7-10.3,9.7-15.9c0.1-0.3,0.1-0.6-0.1-0.8c-1-0.8-2.1-0.9-3.4-0.2c-1.7,0.9-3.1,2-4.3,3.2
		C375.2,84.3,374.1,85.7,372.8,87.4z M399,84.1c-1.5,1.7-2.6,3.5-3.5,5.5c-0.1,0.3,0,0.4,0.3,0.4c4.8-0.8,7.9-3.5,9.4-8.1
		c0.8-2.3,0-2.9-2.2-1.7c-1.1,0.6-2,1.4-2.8,2.3C399.5,83.5,399.1,84.1,399,84.1z M343.9,82.1l-5,9.8c-0.2,0.3-0.1,0.7,0.1,1
		c0.7,1,0.9,2,0.9,3.1c0,0.4,0,0.7,0.2,0.9c1.8,3.3,3.2,3.4,4.4,0.4c0.4-0.9,0.6-2,0.6-3.3c0.1-3.5-0.2-7.5-0.7-11.8
		C344.3,81.6,344.2,81.6,343.9,82.1z M338,96.9c-1.3,2.3-0.6,3.6,1.8,3.8c1.1,0.1,1.2-0.2,0.5-0.9c-0.7-0.7-1.1-1.5-1.2-2.4
		c0-0.3-0.1-0.5-0.2-0.7C338.6,96.3,338.3,96.3,338,96.9z"/>
	<ellipse transform="matrix(0.6984 -0.7157 0.7157 0.6984 56.6057 282.4293)" class="st0" cx="363.4" cy="74" rx="2.8" ry="2.4"/>
	<path class="st0" d="M206.3,132.3c1.5-0.9,2.9-1.1,4.3-0.5c1.1,0.5,1.9,1.5,2.2,3c0.4,1.8,0.5,3.7,0.3,5.7c0,0.3-0.1,0.5-0.2,0.7
		c-0.6,1.1-0.9,0.9-0.9-0.6c-0.1-1.3-0.1-2.6-0.2-4c-0.1-1.5-0.6-2.6-1.2-3.2c-1-0.9-2.3-0.8-3.8,0.1c-0.3,0.2-0.5,0.4-0.5,0.8
		c-0.4,1.8-0.5,3.7-0.4,5.5c0,0.4,0,0.7,0,1c-0.2,1.5-0.6,1.6-1.2,0.4c-0.1-0.3-0.2-0.6-0.2-0.9c-0.1-3.9-0.1-7.8-0.1-11.7
		c0-0.3,0.1-0.7,0.3-0.9c0.7-0.7,1.1-0.4,1.1,0.9c0,1.1,0.1,2.3,0.1,3.4c0,0.1,0.1,0.3,0.3,0.3C206.2,132.4,206.2,132.4,206.3,132.3
		z"/>
	<path class="st0" d="M134.3,135.8c1.4-1.2,2.8-2.4,4.1-3.6c0.3-0.3,0.5-0.4,0.8-0.5c0.6-0.2,0.9,0,0.8,0.6c0,0.2-0.2,0.5-0.5,0.8
		l-2.3,2.2c-0.2,0.2-0.2,0.5-0.1,0.8c0.8,1.3,1.7,2.6,2.7,3.8c0.3,0.3,0.5,0.6,0.6,0.9c0.4,1,0.1,1.2-0.9,0.9
		c-0.3-0.1-0.5-0.3-0.8-0.6c-0.8-1-1.5-2.1-2.3-3.3c-0.9-1.2-1.6-1.1-2.1,0.3c-0.4,1-0.6,2-0.5,3.1c0,0.4-0.2,0.7-0.4,0.8
		c-0.5,0.2-0.8,0-0.9-0.8c-0.3-2-0.3-6.2,0.2-12.7c0-0.4,0.2-0.7,0.5-0.8c0.3-0.1,0.5,0,0.7,0.2c0.1,0.1,0.2,0.3,0.2,0.6
		c0,2.4,0,4.7,0.1,7.1C133.9,136,134,136,134.3,135.8z"/>
	<circle class="st0" cx="142.9" cy="129" r="0.9"/>
	<circle class="st0" cx="234.2" cy="128.9" r="0.9"/>
	<path class="st0" d="M201.1,131.5c1.2-0.2,1.7,0.2,1.5,1.1c-0.1,0.3-0.3,0.4-0.6,0.4c-1.3-0.1-1.8,0.3-1.7,1.3
		c0.1,0.9,0.2,1.5,0.2,1.7c-0.1,1.6-0.1,3.3-0.2,4.9c0,0.8-0.3,1.1-0.8,0.9c-0.3-0.1-0.4-0.4-0.4-0.8l-0.1-6.8
		c0-0.3-0.2-0.6-0.5-0.7c-1.6-0.7-2.2-1.2-1.7-1.6c0.1-0.1,0.5-0.2,1.4-0.4c0.9-0.2,1.2-0.9,0.8-2c-0.1-0.4-0.1-0.7-0.1-1
		c0.2-0.6,0.6-0.7,1.2-0.3c0.2,0.2,0.3,0.5,0.2,0.8c-0.2,0.7-0.2,1.3,0,2C200.5,131.4,200.8,131.6,201.1,131.5z"/>
	<path class="st0" d="M321.9,131.6c2.4,0.1,2.4,0.7,0,1.8c-0.3,0.1-0.5,0.5-0.5,0.8c0,2.1,0,4.1,0,6.2c0,1.5-0.4,2-1.2,1.3
		c-0.2-0.2-0.4-0.5-0.4-0.8v-6.4c0-0.3-0.2-0.6-0.5-0.8c-1.9-1-2-1.7-0.3-2.2c0.6-0.2,0.9-0.8,0.8-1.4c-0.3-1.2-0.1-1.8,0.6-1.9
		c0.3,0,0.6,0.2,0.6,0.5c0,0,0,0,0,0l0.3,2.4C321.4,131.4,321.6,131.6,321.9,131.6z"/>
	<path class="st0" d="M116.3,131.5c0-0.6-0.2-0.7-0.6-0.2l-4.2,5.1c-0.2,0.2-0.5,0.2-0.7,0.1c0,0,0,0-0.1-0.1l-4.3-5.3
		c-0.4-0.6-0.6-0.5-0.6,0.2c0.2,3.2,0.2,6.3,0,9.4c-0.1,1.2-0.4,1.5-1,0.9c-0.2-0.2-0.3-0.5-0.3-0.9l0.1-11.4c0-0.3,0.2-0.6,0.5-0.7
		c0.8-0.2,1.5,0.1,2.2,0.9c1.2,1.6,2.4,3.2,3.7,5c0.1,0.2,0.3,0.2,0.5,0.1c0,0,0.1-0.1,0.1-0.1c1.4-2.1,2.9-4.1,4.5-5.8
		c0.3-0.4,0.7-0.4,1.1-0.2c0.2,0.1,0.4,0.4,0.4,0.8c0.1,3.8,0.1,7.6,0,11.4c0,1.3-0.3,1.6-0.9,0.8c-0.2-0.2-0.3-0.5-0.3-0.9
		L116.3,131.5z"/>
	<path class="st0" d="M284.8,136.2l-3.4-0.2c-0.3,0-0.6-0.2-0.8-0.4c-0.4-0.6-0.1-0.9,0.8-0.9c0.4,0,0.7,0,1-0.1
		c1.3-0.3,2.6-0.3,3.9,0.2c0.3,0.1,0.5,0.4,0.5,0.7c0.2,1.9,0.2,3.7,0.1,5.6c0,0.3-0.1,0.5-0.2,0.7c-0.2,0.2-0.3,0.2-0.5,0.2
		c-0.2-0.1-0.4-0.3-0.5-0.7c-0.3-1.2-0.8-1.2-1.7-0.2c-1,1.2-2.5,1.5-4.8,0.9c-3.5-1-5.2-3.4-4.9-7.2c0.3-4.6,2.8-6.7,7.6-6.3
		c1.9,0.2,3.3,0.9,4.2,2.3c0.2,0.3,0.3,0.7,0.2,1c-0.1,0.5-0.4,0.6-1,0.4c-0.2-0.1-0.5-0.3-0.7-0.6c-1.9-2.4-4.1-2.7-6.5-1
		c-2.4,1.7-3.1,3.8-2.1,6.5c0.5,1.5,1.4,2.5,2.6,3.1c1.4,0.6,2.9,0.6,4.5-0.1c1.4-0.6,2.1-1.7,2.2-3.2
		C285.3,136.5,285,136.3,284.8,136.2z"/>
	<path class="st0" d="M128.3,132.4c0.1-0.4,0.3-0.6,0.7-0.8c0.2-0.1,0.4,0,0.5,0.3c0,0,0,0.1,0,0.1c0.2,2.7,0.3,5.3,0.2,8
		c-0.1,2.3-0.6,2.6-1.7,0.9c-0.1-0.2-0.4-0.2-0.6-0.1c0,0,0,0-0.1,0c-1,1-2.2,1.3-3.5,1.1c-1-0.2-2-0.7-2.8-1.7
		c-1.9-2.1-2-4.3-0.3-6.6c0.9-1.1,1.9-1.8,3.1-2c1.4-0.2,2.7,0.1,3.9,0.9C128,132.7,128.2,132.6,128.3,132.4
		C128.3,132.4,128.3,132.4,128.3,132.4z M128.5,136.8c0-2-1.7-3.7-3.7-3.7s-3.7,1.7-3.7,3.7c0,0,0,0,0,0c0,2,1.7,3.7,3.7,3.7
		c0,0,0,0,0,0C126.8,140.5,128.5,138.8,128.5,136.8z"/>
	<path class="st0" d="M164.5,140.6c-2.1,1.5-3.9,1.6-5.5,0.3c-1.2-1-1.8-2.2-2-3.8c-0.2-1.8,0.4-3.2,1.8-4.4
		c1.9-1.6,3.8-1.7,5.6-0.2c0.3,0.2,0.8,0.2,1-0.1c0,0,0,0,0,0c0.4-0.6,0.8-0.8,1.1-0.6c0.2,0.1,0.4,0.4,0.4,0.8
		c0.3,2.5,0.3,5,0.2,7.5c-0.1,2.3-0.7,4-1.7,5c-1.6,1.7-3.8,1.8-6.4,0.1c-0.3-0.2-0.6-0.4-0.8-0.7c-0.8-1-0.7-1.4,0.4-1.2
		c0.3,0,0.6,0.2,0.8,0.4c0.6,0.6,1.2,0.9,1.8,1c2.8,0.5,4.2-0.7,4.2-3.6C165.3,140.3,165,140.2,164.5,140.6z M161.7,140.6
		c1.9,0.1,3.6-1.5,3.7-3.6c0,0,0,0,0,0c0.1-2.1-1.4-3.9-3.3-3.9c-1.9-0.1-3.6,1.5-3.7,3.6c0,0,0,0,0,0
		C158.3,138.7,159.8,140.5,161.7,140.6z"/>
	<path class="st0" d="M181.6,140.7c-3.3,1.6-5.6,1.3-7.1-1c-1.2-1.8-1.3-3.7-0.3-5.7c1.2-2.6,3.6-3.1,7.1-1.5
		c0.5,0.2,0.8,0.2,0.9-0.2c0.1-0.3,0.3-0.6,0.5-0.6c0.5,0,0.8,0.3,0.8,1c0,2.2,0,4.5-0.1,6.7c0,2.4-0.4,4.2-1.2,5.2
		c-1.5,2-3.7,2.1-6.5,0.5c-0.3-0.2-0.5-0.4-0.7-0.6c-1.1-1.6-0.8-1.9,0.9-0.9c0.3,0.2,0.6,0.4,0.8,0.4c3.3,1.5,5.1,0.5,5.4-3.1
		C182,140.7,181.9,140.6,181.6,140.7z M182.1,136.7c0-2-1.6-3.7-3.7-3.7s-3.7,1.6-3.7,3.7s1.6,3.7,3.7,3.7S182.1,138.7,182.1,136.7z
		"/>
	<path class="st0" d="M193.6,140.8c-2.2,1.4-4.2,1.6-5.9,0.4c-1.6-1.1-2.4-2.6-2.4-4.6c0-2.2,1.2-3.8,3.8-4.8
		c1.1-0.4,2.4-0.2,4.1,0.8c0.2,0.1,0.5,0.1,0.7-0.2c1-1.4,1.4-0.9,1.5,1.4c0,2.4,0,4.8,0,7.2c0,0.3-0.2,0.7-0.4,0.8
		c-0.5,0.3-0.8,0-0.9-0.7c0-0.2-0.2-0.3-0.3-0.3C193.7,140.7,193.6,140.8,193.6,140.8z M194.1,136.8c0-2.1-1.7-3.7-3.7-3.7
		s-3.7,1.7-3.7,3.7c0,2.1,1.7,3.7,3.7,3.7l0,0C192.4,140.5,194.1,138.8,194.1,136.8L194.1,136.8z"/>
	<path class="st0" d="M228.5,133.5l1.7-1.5c0.3-0.2,0.6-0.3,0.9-0.3c1.1,0,1.2,0.4,0.5,1.1c-0.2,0.2-0.5,0.4-0.8,0.5
		c-1.3,0.5-2.2,1.3-2.5,2.4c-0.2,0.8-0.3,2.5-0.4,5.1c0,0.4-0.2,0.7-0.4,0.8c-0.1,0.1-0.3,0.1-0.5,0c-0.2-0.1-0.4-0.3-0.4-0.7
		c-0.4-3-0.4-5.9,0.2-8.9c0-0.2,0.2-0.4,0.4-0.4c0,0,0.1,0,0.1,0c0.5,0.3,0.8,0.8,0.7,1.6C228.2,133.7,228.3,133.7,228.5,133.5z"/>
	<path class="st0" d="M238.7,132.2c0.2,0.3,0.6,0.4,1,0.3c2.5-1.1,4.3-0.9,5.6,0.5c0.7,0.8,1,2.1,1,3.9c0,1.4,0,2.8,0,4.2
		c0,0.4-0.1,0.7-0.4,0.8c-0.6,0.5-0.9,0.2-1-0.9c-0.1-1.3-0.1-2.6-0.2-3.8c-0.1-1.4-0.4-2.5-1.1-3.2c-1.3-1.4-2.8-1.1-4.3,0.8
		c-0.2,0.2-0.3,0.6-0.3,0.9c0,1.6-0.1,3.2-0.3,4.8c-0.2,1.7-0.5,2.1-1.1,1c-0.1-0.2-0.2-0.5-0.2-0.9c-0.2-2.5-0.3-5-0.2-7.6
		C237.3,131.1,237.8,130.9,238.7,132.2z"/>
	<path class="st0" d="M256.9,132.1c0.2-0.6,0.6-0.7,1.1-0.3c0.2,0.2,0.4,0.5,0.4,0.8c0,2.7,0,5.3,0,8c0,2.6-1,4.3-3.1,5
		c-2.4,0.8-4.4,0.3-6-1.4c-0.2-0.3-0.3-0.6-0.2-0.9c0.2-0.5,0.7-0.4,1.5,0.1c3.3,2.3,5.4,1.6,6.3-2.1c0.2-0.7-0.1-0.8-0.7-0.6
		c-2.5,1-4.4,1-5.8,0.1c-1.3-0.8-1.9-2.3-1.8-4.5c0.2-4.5,2.8-5.8,7.8-3.9C256.5,132.5,256.8,132.4,256.9,132.1z M253.1,140.5
		c1.9,0,3.5-1.6,3.6-3.7c0,0,0,0,0,0c0-2.1-1.5-3.8-3.4-3.8c-1.9,0-3.5,1.6-3.6,3.7c0,0,0,0,0,0
		C249.6,138.8,251.2,140.5,253.1,140.5L253.1,140.5z"/>
	<path class="st0" d="M260.8,133c0.1-0.4,0.3-0.7,0.7-0.8c2.6-1.3,4.7-0.9,6.3,1.2c0.2,0.2,0.3,0.5,0.2,0.8c0,0.6-0.4,0.6-1.2,0
		c-1.4-1.2-2.9-1.5-4.2-0.9c-0.3,0.1-0.5,0.4-0.6,0.7c-0.3,0.9,0.2,1.5,1.5,1.6c1.2,0.1,2.4,0.5,3.4,1.1c1,0.5,1.5,1.3,1.6,2.1
		c0.2,1.2-0.4,2.1-1.8,2.7c-2.7,1.2-4.8,0.6-6.3-1.8c-0.3-0.5-0.3-0.8,0-1c0.2-0.1,0.5,0,0.8,0.2c1.1,1.4,2.5,1.9,4.3,1.6
		c0.6-0.1,1-0.4,1.3-0.8c0.3-0.5,0.3-0.9-0.1-1.3c-0.2-0.2-0.6-0.4-1.1-0.6c-1.8-0.4-3.1-0.9-3.9-1.4
		C260.5,135.9,260.3,134.7,260.8,133z"/>
	<path class="st0" d="M291.1,132.9c0.5-0.2,0.9-0.5,1.3-0.8c0.4-0.3,0.7-0.4,1.1-0.4c1-0.2,1.4,0.2,0.9,0.9
		c-0.1,0.2-0.4,0.4-0.8,0.6c-1.8,0.6-2.8,1.8-2.9,3.8c-0.1,1.2-0.1,2.5-0.1,3.7c0,0.4-0.1,0.7-0.3,0.9c-0.7,0.7-1,0.3-1.1-1.1
		c-0.1-2.8-0.1-5.5,0.1-8.3c0-0.3,0.2-0.5,0.5-0.5c0,0,0,0,0,0c0.5,0.1,0.7,0.4,0.8,1c0,0.2,0.2,0.3,0.4,0.3
		C291,132.9,291,132.9,291.1,132.9z"/>
	<path class="st0" d="M296.8,138c1,2.8,2.8,3.4,5.6,1.7c0.4-0.2,0.7-0.4,0.9-0.5c1.2-0.5,1.5-0.2,0.9,0.9c-0.2,0.3-0.4,0.5-0.6,0.7
		c-2,1.4-3.9,1.6-5.8,0.5c-1.3-0.8-2.2-1.9-2.5-3.3c-0.4-1.6,0-3.1,1-4.5c1.2-1.7,2.8-2.2,4.9-1.8c2.2,0.5,3.5,1.8,3.9,3.7
		c0.3,1.3-0.3,2-1.7,2l-6.2,0c-0.2,0-0.4,0.2-0.4,0.4C296.8,137.9,296.8,137.9,296.8,138z M296.8,135c-0.4,0.6-0.2,0.9,0.5,0.9h4.2
		c2.4,0,2.7-0.6,0.9-1.9C300.2,132.3,298.3,132.7,296.8,135z"/>
	<path class="st0" d="M307.2,134c1.5-2.4,3.6-3.1,6.2-2c0.2,0.1,0.6,0.1,0.9,0l1.2-0.2c0.2,0,0.4,0.1,0.5,0.4c0,0,0,0.1,0,0.1
		c0,2.3,0.1,4.6,0.1,6.9c0,0.2,0.1,0.7,0.2,1.5c0.2,1.3-0.3,1.6-1.5,0.9c-0.3-0.2-0.6-0.2-0.9-0.1c-3.2,1.4-5.7,0.7-7.2-2
		C305.7,137.8,305.9,136,307.2,134z M311.2,140.6c1.9,0,3.5-1.7,3.5-3.8l0,0c0-2.1-1.5-3.8-3.5-3.8c0,0,0,0,0,0
		c-1.9,0-3.5,1.7-3.5,3.8C307.8,138.9,309.3,140.6,311.2,140.6L311.2,140.6z"/>
	<path class="st0" d="M143,131.7L143,131.7c0.5,0,0.8,0.3,0.8,0.7l0,8.8c0,0.4-0.3,0.7-0.7,0.7l-0.1,0c-0.4,0-0.7-0.3-0.7-0.7l0-8.8
		C142.3,132,142.7,131.7,143,131.7z"/>
	<path class="st0" d="M148.5,132.6c1.4-1.1,2.8-1.3,4.2-0.7c1.1,0.5,1.8,1.5,2.1,2.9c0.5,2.1,0.5,4.2,0.1,6.3
		c-0.1,0.4-0.3,0.6-0.6,0.7c-0.5,0.2-0.7-0.1-0.7-0.9c0.1-1.9,0-3.9-0.3-5.9c-0.2-1.3-0.9-2-2.2-2.1c-1.4-0.1-2.4,0.4-3,1.6
		c-0.3,0.6-0.5,1.6-0.5,2.9c0,1,0,2,0,3c0,1.6-0.3,1.9-1,0.9c-0.2-0.2-0.2-0.5-0.2-0.8c0-2.2-0.1-4.4-0.1-6.6
		c-0.1-2.4,0.4-2.8,1.6-1.4C147.9,132.7,148.2,132.8,148.5,132.6z"/>
	<path class="st0" d="M216.6,137.7c0,1,0.3,1.7,1,2.1c2,1.2,3.9,0.9,5.8-0.7c0.2-0.2,0.4-0.3,0.6-0.3c0.3,0,0.4,0.1,0.4,0.5
		c0,0.2-0.1,0.3-0.2,0.5c-1.3,1.7-3.1,2.3-5.3,1.8c-1.4-0.3-2.4-1-3.1-2c-0.5-0.8-0.7-1.9-0.6-3.3c0.2-3.3,2-4.8,5.3-4.7
		c1.3,0.1,2.3,0.4,3,1.1c0.9,0.9,1.4,2,1.3,3.3c0,0.8-0.7,1.4-1.5,1.3l-6.2-0.2C216.8,137.2,216.6,137.5,216.6,137.7
		C216.6,137.7,216.6,137.7,216.6,137.7z M221.6,133.5c-2.3-0.9-3.9-0.4-4.8,1.5c-0.2,0.3,0,0.7,0.3,0.9c0.1,0,0.2,0.1,0.3,0.1h5.1
		c0.4,0,0.7-0.3,0.7-0.8c0-0.1,0-0.2,0-0.2C222.9,134.3,222.4,133.8,221.6,133.5z"/>
	<path class="st0" d="M234,131.7l0.3,0c0.4,0,0.7,0.3,0.7,0.7l0,8.8c0,0.4-0.3,0.7-0.7,0.7l-0.3,0c-0.4,0-0.7-0.3-0.7-0.7l0-8.8
		C233.3,132,233.6,131.7,234,131.7z"/>
	<circle class="st0" cx="325.5" cy="141" r="1"/>
</g>
</svg>
